<?xml version="1.0" encoding="utf-8"?>
<!-- Generator: Adobe Illustrator 19.1.0, SVG Export Plug-In . SVG Version: 6.00 Build 0)  -->
<svg version="1.1" id="Ebene_1" xmlns="http://www.w3.org/2000/svg" xmlns:xlink="http://www.w3.org/1999/xlink" x="0px" y="0px"
	 viewBox="-2 4 24 24" style="enable-background:new -2 4 24 24;" xml:space="preserve">
<style type="text/css">
	.st0{fill:#FFFFFF;}
</style>
<path class="st0" d="M7.3,9.9c-0.2,0-0.4-0.1-0.5-0.2c-0.3-0.3-0.3-0.7,0-1l1-1c0.3-0.3,0.7-0.3,1,0C9,8,9,8.4,8.7,8.7l-1,1
	C7.6,9.8,7.5,9.9,7.3,9.9z"/>
<path class="st0" d="M-1.1,14.5c-0.4,0-0.7-0.3-0.7-0.6c0-0.4,0.2-0.7,0.6-0.8l1.3-0.2c0.4,0,0.7,0.2,0.8,0.6c0,0.4-0.2,0.7-0.6,0.8
	L-1.1,14.5C-1.1,14.5-1.1,14.5-1.1,14.5z"/>
<path class="st0" d="M0.9,10.4c-0.1,0-0.2,0-0.3,0l-1.1-0.4C-0.8,9.8-1,9.4-0.8,9c0.1-0.4,0.5-0.5,0.9-0.4L1.2,9
	c0.4,0.1,0.5,0.5,0.4,0.9C1.5,10.2,1.2,10.4,0.9,10.4z"/>
<path class="st0" d="M4.1,9C3.7,9,3.4,8.7,3.4,8.3V7c0-0.4,0.3-0.7,0.7-0.7S4.8,6.6,4.8,7v1.4C4.8,8.7,4.5,9,4.1,9z"/>
<path class="st0" d="M4,15.9c0,0-0.1,0-0.1,0C2.2,15.7,1,14.4,1,12.7c0-1.8,1.5-3.3,3.3-3.3c1.8,0,3.1,1.3,3.2,3.1v0
	c0,0.4-0.2,0.8-0.6,1.4c-0.1,0.1-0.2,0.3-0.2,0.5c-0.1,0.2-0.2,0.4-0.3,0.5c-0.1,0.1-0.4,0.5-0.9,0.6c-0.2,0-0.3,0-0.4,0.1
	c-0.1,0-0.2,0.1-0.4,0.1C4.4,15.8,4.2,15.9,4,15.9z M4.3,11.2c-0.8,0-1.5,0.7-1.5,1.5c0,0.7,0.4,1.2,1.1,1.4c0,0,0.1,0,0.1,0
	c0.1,0,0.2-0.1,0.3-0.1c0.1,0,0.3-0.1,0.5-0.1c0,0,0-0.1,0.1-0.1c0.1-0.2,0.2-0.5,0.4-0.8c0.1-0.2,0.3-0.4,0.3-0.5
	C5.6,11.7,5.1,11.2,4.3,11.2z"/>
<path class="st0" d="M16.2,24.2c-0.1,0-0.1,0-0.2,0l0,0c-0.1,0-0.1,0-0.2,0H6c-2.6,0-4.8-2.3-4.8-5.1c0-2.4,1.6-4.5,3.8-5
	c0.9-2.8,3.3-4.7,6.1-4.7c2.3,0,4.3,1.2,5.5,3.3c2.8,0.2,5.1,2.7,5.1,5.7C21.6,21.6,19.2,24.2,16.2,24.2z M16,22.2l0.1,0
	c0,0,0,0,0.1,0c2,0,3.6-1.7,3.6-3.8s-1.6-3.8-3.6-3.8c0,0-0.1,0-0.1,0l-0.7,0l-0.3-0.6c-0.8-1.7-2.3-2.7-4.1-2.7
	c-2.1,0-4,1.6-4.5,3.8l-0.1,0.7l-0.7,0C4.2,16,3,17.4,3,19.1c0,1.7,1.3,3.1,2.9,3.1h9.9c0,0,0.1,0,0.1,0L16,22.2z"/>
</svg>
